# xmcd
#
# Track frame offsets: 
#        150
#        17565
#        32705
#        42268
#        59023
#        74925
#        88833
#        106248
#        122860
#        140003
#
# Disc length: 2134 seconds
#
# Revision: 3
# Processed by: cddbd v1.5.2PL0 Copyright (c) Steve Scherf et al.
# Submitted via: ExactAudioCopyFreeDBPlugin 1.0
#
DISCID=9708540a
DTITLE=Adele - 19 (Bonus Disc)
DYEAR=2008
DGENRE=Pop
TTITLE0=Chasing Pavements (Acoustic)
TTITLE1=Melt My Heart To Stone (Acoustic)
TTITLE2=That's It, I Quit, I'm Movin' On (Acoustic)
TTITLE3=Crazy For You (Acoustic)
TTITLE4=Right As Rain (Acoustic)
TTITLE5=My Same (Acoustic)
TTITLE6=Make You Feel My Love (Acoustic)
TTITLE7=Daydreamer (Acoustic)
TTITLE8=Hometown Glory (Acoustic)
TTITLE9=Many Shades Of Black (Bonus Track)
EXTD=
EXTT0=
EXTT1=
EXTT2=
EXTT3=
EXTT4=
EXTT5=
EXTT6=
EXTT7=
EXTT8=
EXTT9=
PLAYORDER=
